<svg width="222" height="222" viewBox="0 0 222 222" fill="none" xmlns="http://www.w3.org/2000/svg">
<g clip-path="url(#clip0_413_302)">
<rect x="24" width="25" height="24" fill="#FCEDD8"/>
<rect x="49" width="25" height="24" fill="#FCEDD8"/>
<rect x="24" y="74" width="25" height="25" fill="#FCEDD8"/>
<rect x="49" y="74" width="25" height="25" fill="#FCEDD8"/>
<rect x="74" y="24" width="25" height="25" fill="#FCEDD8"/>
<rect x="74" y="49" width="25" height="25" fill="#FCEDD8"/>
<rect x="123" y="49" width="25" height="25" fill="#FCEDD8"/>
<rect x="123" y="74" width="25" height="25" fill="#FCEDD8"/>
<rect x="148" y="24" width="25" height="25" fill="#FCEDD8"/>
<rect x="99" y="99" width="24" height="24" fill="#FCEDD8"/>
<rect x="49" y="173" width="25" height="25" fill="#FCEDD8"/>
<rect x="74" y="123" width="25" height="25" fill="#FCEDD8"/>
<rect x="74" y="148" width="25" height="25" fill="#FCEDD8"/>
<rect y="24" width="24" height="25" fill="#FCEDD8"/>
<rect y="49" width="24" height="25" fill="#FCEDD8"/>
<rect x="148" y="123" width="25" height="25" fill="#FCEDD8"/>
<rect x="173" y="123" width="25" height="25" fill="#FCEDD8"/>
<rect x="148" y="198" width="25" height="24" fill="#FCEDD8"/>
<rect x="173" y="198" width="25" height="24" fill="#FCEDD8"/>
<rect x="198" y="148" width="24" height="25" fill="#FCEDD8"/>
<rect x="198" y="173" width="24" height="25" fill="#FCEDD8"/>
<rect x="123" y="148" width="25" height="25" fill="#FCEDD8"/>
<rect x="123" y="173" width="25" height="25" fill="#FCEDD8"/>
</g>
<defs>
<clipPath id="clip0_413_302">
<rect width="222" height="222" fill="white"/>
</clipPath>
</defs>
</svg>
